<svg xmlns="http://www.w3.org/2000/svg" xmlns:xlink="http://www.w3.org/1999/xlink" version="1.1" width="100px" height="100px" viewBox="0 0 100 125" enable-background="new 0 0 100 100" xml:space="preserve" stroke="black" stroke-width="5" fill="white"><g><path d="M54.289,47.857c-1.834,0-3.398,0.648-4.694,1.932c-1.297,1.307-1.956,2.872-1.956,4.718c0,1.834,0.659,3.423,1.956,4.756   c1.296,1.318,2.86,1.979,4.694,1.979c1.847,0,3.411-0.635,4.719-1.932c1.283-1.295,1.931-2.896,1.931-4.804   c0-1.785-0.647-3.336-1.931-4.655C57.7,48.518,56.136,47.857,54.289,47.857z"/><path d="M98.27,32.589C93.748,23.166,84.554,9.976,64.385,4.829C9.391-9.241-9.715,50.116,5.632,59.103   c9.536,5.587,15.182,0.372,21.332-7.481L36.942,63.1c-1.1,0.974-1.22,2.649-0.26,3.766l8.532,9.928   c0.502,0.583,1.228,0.924,1.997,0.937c0.015,0.001,0.03,0.001,0.044,0.001c0.754,0,1.474-0.316,1.983-0.873l4.854-5.293   l4.622,10.558c1.149,2.2,2.873,3.287,5.184,3.287c0.537,0,1.099-0.072,1.709-0.22l11.063-3.782v12.207   c0,2.468,1.184,3.704,3.583,3.704c2.37,0,3.567-1.188,3.567-3.582V76.31c0-1.295-0.514-2.445-1.515-3.434   c-1.002-0.979-2.078-1.48-3.181-1.48c-0.293,0-0.562,0.014-0.841,0.025l-10.207,3.244l-3.396-7.786H71.5   c1.487,0,2.691-1.203,2.691-2.691v-38.17c9.131,1.584,15.716,5.799,20.41,9.372C98.258,38.163,100.52,37.272,98.27,32.589z    M72.037,48.009c-0.173-0.036-0.352-0.055-0.537-0.055c-1.486,0-2.691,1.205-2.691,2.693v10.851h-9.393   c-1.999,0.077-4.123,0.932-5.624,2.432l-6.472,7.058L28.636,49.447c7.448-9.808,16.161-22.307,33.487-23.874   c3.585-0.321,6.88-0.24,9.914,0.129V48.009z"/></g></svg>
