<?xml version="1.0" standalone="no"?>
<!DOCTYPE svg PUBLIC "-//W3C//DTD SVG 20010904//EN"
 "http://www.w3.org/TR/2001/REC-SVG-20010904/DTD/svg10.dtd">
<svg version="1.0" xmlns="http://www.w3.org/2000/svg"
 width="700.000000pt" height="700.000000pt" viewBox="0 0 700.000000 700.000000"
 preserveAspectRatio="xMidYMid meet">
<metadata>
Created by potrace 1.14, written by Peter Selinger 2001-2017
</metadata>
<g transform="translate(0.000000,700.000000) scale(0.100000,-0.100000)"
fill="#000000" stroke="none">
<path d="M3209 6846 c-2 -2 -40 -6 -84 -10 -86 -6 -352 -48 -362 -56 -3 -3 -7
-4 -53 -14 -154 -33 -383 -120 -565 -215 -251 -130 -425 -259 -645 -480 -288
-289 -488 -604 -634 -995 -41 -110 -101 -332 -111 -416 -4 -30 -11 -77 -15
-105 -9 -53 -6 -363 4 -405 47 -201 92 -296 181 -384 49 -49 86 -75 166 -114
124 -60 195 -81 309 -88 240 -16 452 113 727 443 l85 103 22 -28 c11 -15 30
-37 41 -48 11 -12 27 -30 35 -40 30 -36 433 -499 447 -512 11 -11 10 -18 -7
-39 -24 -30 -34 -81 -26 -126 5 -28 130 -184 305 -382 15 -16 67 -77 117 -135
115 -132 124 -140 167 -147 60 -9 101 4 148 50 41 40 195 206 246 266 l22 25
15 -34 c8 -19 33 -78 56 -130 23 -52 48 -110 56 -127 144 -332 157 -356 218
-414 32 -30 102 -60 160 -68 52 -7 157 7 201 28 11 5 103 37 205 71 102 34
194 65 205 70 27 11 145 49 146 47 0 -1 2 -168 4 -372 1 -203 4 -377 7 -385 2
-9 14 -33 26 -53 31 -53 87 -77 177 -74 91 3 139 31 168 96 20 44 20 64 21
586 l0 540 -27 55 c-55 116 -150 178 -261 168 -42 -4 -224 -59 -545 -164 -24
-8 -46 -13 -48 -10 -4 4 -97 214 -162 366 l-28 65 211 0 c201 1 214 2 248 23
20 12 44 39 54 60 17 35 18 97 18 1120 1 966 2 1082 16 1082 53 0 326 -80 480
-140 122 -48 364 -179 456 -247 17 -13 36 -23 42 -23 6 0 12 -4 14 -8 4 -12
186 -141 228 -162 58 -30 106 -35 136 -15 24 16 26 21 22 78 -4 67 -49 172
-150 351 -47 85 -203 325 -217 336 -4 3 -22 25 -41 50 -56 72 -89 108 -200
221 -132 135 -218 207 -390 330 -123 88 -374 222 -545 289 -97 38 -304 108
-342 115 -15 2 -58 13 -96 24 -37 11 -70 20 -72 20 -3 0 -29 4 -58 10 -117 23
-125 25 -262 46 -16 3 -52 7 -80 10 -27 3 -68 8 -90 11 -45 6 -491 15 -496 10z
m1489 -1280 c12 -3 25 -7 30 -9 4 -3 7 -283 7 -623 l-1 -619 -39 -3 c-53 -4
-104 -38 -124 -83 -15 -33 -17 -77 -17 -353 1 -174 -1 -316 -4 -317 -3 -1
-135 -2 -295 -4 -260 -2 -296 -4 -352 -23 -94 -30 -152 -72 -265 -194 -57 -61
-130 -140 -162 -175 -33 -36 -73 -80 -89 -99 -16 -19 -33 -34 -37 -34 -4 0
-36 35 -73 78 -36 42 -78 91 -94 109 -15 17 -48 55 -73 84 -25 30 -65 76 -90
104 -25 28 -67 78 -95 110 -27 32 -55 63 -60 69 -6 6 -53 61 -105 121 -125
145 -298 344 -369 424 -96 109 -96 92 0 217 178 234 282 361 394 482 339 368
687 588 1085 687 52 13 113 26 135 30 23 3 51 7 64 10 13 2 63 7 110 11 47 4
88 8 90 10 6 5 403 -4 429 -10z"/>
<path d="M3625 4301 c-152 -51 -254 -191 -255 -346 0 -182 109 -327 279 -371
178 -45 350 37 430 206 23 48 26 68 26 155 0 90 -3 106 -29 160 -37 75 -114
151 -186 183 -71 32 -191 38 -265 13z"/>
</g>
</svg>
